<svg width="102" height="23" viewBox="0 0 102 23" fill="none" xmlns="http://www.w3.org/2000/svg">
<g clip-path="url(#clip0_263_189)">
<path d="M0.366755 9.58984L0.386875 9.45034H1.56179C1.65457 8.94106 1.78757 8.44799 1.9543 7.96985L0.937679 7.37687C1.4022 6.17794 1.92576 5.26513 2.72439 4.26083L3.74231 4.85251C4.07123 4.46519 4.43066 4.10253 4.81473 3.77036L4.22823 2.744C5.2241 1.93888 6.12914 1.41078 7.31964 0.942368L7.90612 1.96742C8.37972 1.80004 8.86954 1.66704 9.37299 1.57167V0.388976C9.97051 0.296858 10.5537 0.243652 11.1578 0.243652C11.7611 0.243652 12.3463 0.296858 12.9425 0.388976V1.57168C13.446 1.66705 13.9371 1.80005 14.4107 1.96743L14.9972 0.942375C16.1877 1.41079 17.0927 1.93889 18.0886 2.74401L17.5001 3.77036C17.8862 4.10254 18.2456 4.4652 18.5745 4.85446L19.5924 4.26278C20.3911 5.26708 20.9146 6.1799 21.3791 7.38013L20.3612 7.9718C20.5292 8.4493 20.6609 8.94301 20.7531 9.45035H21.928C22.0175 10.0518 22.072 10.6402 22.072 11.2494C22.072 11.8599 22.0175 12.4477 21.9267 13.051H20.7531C20.659 13.5584 20.5273 14.0521 20.3612 14.5296L21.3772 15.1213C20.9133 16.3215 20.3891 17.2343 19.5911 18.2386L18.5732 17.6456C18.2436 18.0349 17.8862 18.3956 17.5001 18.7278L18.0886 19.7541C17.0927 20.5592 16.1877 21.0873 14.9972 21.5558L14.4107 20.5307C13.9371 20.6981 13.446 20.833 12.9425 20.9264V22.1111C12.3463 22.2013 11.7611 22.2564 11.1578 22.2564C10.5538 22.2564 9.97052 22.2013 9.373 22.1111V20.9264C8.86956 20.833 8.37843 20.6981 7.90483 20.5307L7.31835 21.5558C6.12785 21.0873 5.22411 20.5592 4.22825 19.7541L4.81473 18.7278C4.43066 18.3969 4.07319 18.0349 3.74361 17.6489L2.7257 18.2405C1.92706 17.2362 1.4035 16.3234 0.937679 15.1245L1.95561 14.5315C1.78758 14.0534 1.65588 13.5584 1.56181 13.051H0.388825C0.297995 12.4477 0.244141 11.8599 0.244141 11.2494C0.244141 10.6843 0.28501 10.1309 0.366755 9.58984Z" fill="#9E9E9E"/>
<path d="M0.667941 9.77668C0.601773 10.2574 0.567383 10.7492 0.567383 11.2494C0.567383 11.7509 0.601773 12.2427 0.667941 12.7247H1.83507C1.94926 13.4033 2.11535 14.03 2.35215 14.6768L1.34266 15.2653C1.71246 16.1872 2.20811 17.0449 2.80563 17.8169L3.81707 17.2285C4.25369 17.7566 4.70654 18.2139 5.23075 18.6532L4.64686 19.6737C5.4137 20.2764 6.26424 20.7759 7.17706 21.1496L7.76225 20.1304C8.40194 20.3679 9.02281 20.5359 9.69559 20.6507V21.8295C10.1744 21.8944 10.6623 21.9295 11.1579 21.9295C11.6536 21.9295 12.1408 21.8944 12.6196 21.8295V20.6507C13.2924 20.5359 13.9132 20.3679 14.5549 20.1291L15.1381 21.1496C16.0529 20.7746 16.9028 20.2764 17.6683 19.6737L17.0844 18.6532C17.6086 18.2139 18.0634 17.7553 18.4994 17.2265L19.5108 17.8149C20.109 17.0429 20.604 16.1859 20.9745 15.264L19.963 14.6755C20.1998 14.03 20.3659 13.4033 20.4801 12.7247H21.6472C21.7134 12.2427 21.7478 11.7509 21.7478 11.2494C21.7478 10.7492 21.7134 10.2574 21.6492 9.77668H20.4801C20.3659 9.09807 20.2011 8.472 19.9643 7.82647L20.9758 7.23804C20.604 6.31613 20.1103 5.45846 19.5128 4.68643L18.5007 5.27486C18.0647 4.74546 17.6099 4.28678 17.0844 3.84497L17.6683 2.8251C16.9028 2.2224 16.0509 1.72414 15.1381 1.34915L14.5549 2.36967C13.9132 2.13092 13.2924 1.96289 12.6196 1.84741V0.670533C12.1408 0.604364 11.6536 0.569336 11.1579 0.569336C10.6623 0.569336 10.1744 0.604364 9.69559 0.670533V1.84741C9.02281 1.9629 8.40194 2.13092 7.76225 2.36967L7.17835 1.34915C6.26423 1.72219 5.4137 2.2224 4.64686 2.8251L5.23205 3.84367C4.70655 4.28484 4.25176 4.74352 3.81448 5.27356L2.80434 4.68319C2.20683 5.45717 1.71116 6.31419 1.34071 7.2361L2.35215 7.82453C2.11535 8.472 1.94927 9.09677 1.83509 9.77668H0.667941Z" fill="#151515"/>
<path d="M4.95231 5.69701C6.47238 3.97128 8.68857 2.8833 11.1571 2.8833C13.6257 2.8833 15.8432 3.97128 17.362 5.69701H15.5L13.9397 9.14199L11.1571 2.8833L8.37457 9.14199L6.81427 5.69701H4.95231ZM17.2913 16.8799C15.7744 18.5595 13.5881 19.6144 11.1571 19.6144C8.7262 19.6144 6.5392 18.5595 5.02303 16.8799H6.89861L8.37457 13.5627L9.97573 17.1361L11.1571 14.5501L12.3379 17.1361L13.9397 13.5627L15.415 16.8799H17.2913ZM17.4353 5.78071C18.692 7.24693 19.4523 9.15756 19.4523 11.2492C19.4523 13.3733 18.6667 15.3124 17.373 16.7884L14.9512 11.3945L17.4353 5.78071ZM2.86133 11.2492C2.86133 9.15756 3.62234 7.24693 4.87836 5.78071L7.36314 11.3945L4.94128 16.7884C3.64764 15.3124 2.86133 13.3733 2.86133 11.2492Z" fill="#9E9E9E"/>
<path d="M9.89341 12.5427L11.1572 9.7796L12.423 12.5427L12.9284 11.3516L11.1572 7.35645L9.38672 11.3516L9.89341 12.5427Z" fill="#9E9E9E"/>
<path d="M0.667941 9.77668C0.601773 10.2574 0.567383 10.7492 0.567383 11.2494C0.567383 11.7509 0.601773 12.2427 0.667941 12.7247H1.83507C1.94926 13.4033 2.11535 14.03 2.35215 14.6768L1.34266 15.2653C1.71246 16.1872 2.20811 17.0449 2.80563 17.8169L3.81707 17.2285C4.25369 17.7566 4.70654 18.2139 5.23075 18.6532L4.64686 19.6737C5.4137 20.2764 6.26424 20.7759 7.17706 21.1496L7.76225 20.1304C8.40194 20.3679 9.02281 20.5359 9.69559 20.6507V21.8295C10.1744 21.8944 10.6623 21.9295 11.1579 21.9295C11.6536 21.9295 12.1408 21.8944 12.6196 21.8295V20.6507C13.2924 20.5359 13.9132 20.3679 14.5549 20.1291L15.1381 21.1496C16.0529 20.7746 16.9028 20.2764 17.6683 19.6737L17.0844 18.6532C17.6086 18.2139 18.0634 17.7553 18.4994 17.2265L19.5108 17.8149C20.109 17.0429 20.604 16.1859 20.9745 15.264L19.963 14.6755C20.1998 14.03 20.3659 13.4033 20.4801 12.7247H21.6472C21.7134 12.2427 21.7478 11.7509 21.7478 11.2494C21.7478 10.7492 21.7134 10.2574 21.6492 9.77668H20.4801C20.3659 9.09807 20.2011 8.472 19.9643 7.82647L20.9758 7.23804C20.604 6.31613 20.1103 5.45846 19.5128 4.68643L18.5007 5.27486C18.0647 4.74546 17.6099 4.28678 17.0844 3.84497L17.6683 2.8251C16.9028 2.2224 16.0509 1.72414 15.1381 1.34915L14.5549 2.36967C13.9132 2.13092 13.2924 1.96289 12.6196 1.84741V0.670533C12.1408 0.604364 11.6536 0.569336 11.1579 0.569336C10.6623 0.569336 10.1744 0.604364 9.69559 0.670533V1.84741C9.02281 1.9629 8.40194 2.13092 7.76225 2.36967L7.17835 1.34915C6.26423 1.72219 5.4137 2.2224 4.64686 2.8251L5.23205 3.84367C4.70655 4.28484 4.25176 4.74352 3.81448 5.27356L2.80434 4.68319C2.20683 5.45717 1.71116 6.31419 1.34071 7.2361L2.35215 7.82453C2.11535 8.472 1.94927 9.09677 1.83509 9.77668H0.667941Z" fill="#151515"/>
<path d="M4.95231 5.69701C6.47238 3.97128 8.68857 2.8833 11.1571 2.8833C13.6257 2.8833 15.8432 3.97128 17.362 5.69701H15.5L13.9397 9.14199L11.1571 2.8833L8.37457 9.14199L6.81427 5.69701H4.95231ZM17.2913 16.8799C15.7744 18.5595 13.5881 19.6144 11.1571 19.6144C8.7262 19.6144 6.5392 18.5595 5.02303 16.8799H6.89861L8.37457 13.5627L9.97573 17.1361L11.1571 14.5501L12.3379 17.1361L13.9397 13.5627L15.415 16.8799H17.2913ZM17.4353 5.78071C18.692 7.24693 19.4523 9.15756 19.4523 11.2492C19.4523 13.3733 18.6667 15.3124 17.373 16.7884L14.9512 11.3945L17.4353 5.78071ZM2.86133 11.2492C2.86133 9.15756 3.62234 7.24693 4.87836 5.78071L7.36314 11.3945L4.94128 16.7884C3.64764 15.3124 2.86133 13.3733 2.86133 11.2492Z" fill="#9E9E9E"/>
<path d="M9.89341 12.5427L11.1572 9.7796L12.423 12.5427L12.9284 11.3516L11.1572 7.35645L9.38672 11.3516L9.89341 12.5427Z" fill="#9E9E9E"/>
<path d="M4.83008 5.69727L5.17393 6.44724V5.69727H4.83008Z" fill="#151515"/>
<path d="M17.3626 5.69853H17.4015C16.6769 4.88432 15.7978 4.2135 14.8091 3.73535C15.7829 4.21739 16.6496 4.88822 17.3626 5.69853ZM17.4483 5.75173L17.4352 5.78158C18.6919 7.2478 19.4529 9.15844 19.4529 11.2488C19.4529 13.3728 18.6659 15.3114 17.3729 16.7867L17.4073 16.8613C18.7211 15.3814 19.5217 13.4267 19.5217 11.2832C19.5217 9.16233 18.738 7.22639 17.4483 5.75173ZM11.1577 19.6153C9.87443 19.6153 8.65994 19.3214 7.5752 18.7966C8.67681 19.3422 9.91596 19.6503 11.2265 19.6503C13.673 19.6503 15.8717 18.5812 17.3898 16.882L17.2912 16.8807C15.7744 18.5611 13.588 19.6153 11.1577 19.6153Z" fill="#151515"/>
<path d="M95.1426 19.2344H22.8369C24.4477 16.9488 25.3936 14.1557 25.3936 11.1377C25.3935 8.21774 24.507 5.50539 22.9902 3.2627H95.1426V19.2344ZM74.4512 5.99219C71.1588 5.99219 70.7793 9.29752 70.7793 11.2568C70.7793 13.3076 71.2041 16.5068 74.4512 16.5068C77.7886 16.5065 78.1221 13.1239 78.1221 11.2568C78.122 9.12898 77.6672 5.9925 74.4512 5.99219ZM59.6826 6.14551L59.6807 11.8262L56.6631 6.14551L54.8848 6.14453V16.3535L56.6631 16.3545L56.6641 10.2783L59.6826 16.3545L61.46 16.3535V6.14453L59.6826 6.14551ZM27.7891 16.3535H29.667L30.126 14.3477H32.7266L33.2002 16.3535H35.2725L32.6299 6.14453H30.5713L27.7891 16.3535ZM36.2969 16.3535H40.7412L41.2539 14.4395H38.3076V6.14453H36.2969V16.3535ZM40.874 8.05762H42.7246V16.3535H44.7344V8.05762H46.627V6.14453H40.874V8.05762ZM47.8154 16.3535H53.333V14.5322H49.8262V11.8809H52.5342V10.1211H49.8262V7.9043H53.333V6.14453H47.8154V16.3535ZM63.124 16.3535H65.6943C66.397 16.3535 67.3883 16.3533 68.2012 15.6494C69.1924 14.8074 69.7021 13.0937 69.7021 11.1807C69.7021 6.16048 66.8509 6.14453 65.4463 6.14453H63.124V16.3535ZM79.2832 16.3535H81.2939V12.3281H82.3125L83.5391 16.3535H85.7422L84.0488 11.8994C84.5036 11.5938 85.3426 11.042 85.3428 9.23633C85.3428 8.42556 85.1637 7.61441 84.6826 7.01758C83.9801 6.14508 83.0846 6.14453 82.1621 6.14453H79.2832V16.3535ZM87.0869 16.3535H89.0977V12.0693H90.9268L91.3965 10.3105H89.0977V7.9043H92.0488L92.5215 6.14453H87.0869V16.3535ZM74.4512 7.7793C75.7171 7.77963 75.917 9.09298 75.917 11.2568C75.917 13.4358 75.7003 14.7204 74.4512 14.7207C73.2179 14.7207 72.9844 13.4672 72.9844 11.2568C72.9844 9.01551 73.2179 7.7793 74.4512 7.7793ZM65.6396 7.9043C66.4525 7.90433 67.5683 8.01212 67.5684 11.1494C67.5684 14.4856 66.4389 14.5937 65.6396 14.5938H65.0186V7.90527L65.6396 7.9043ZM32.3516 12.5811H30.5156L31.4199 8.50195L32.3516 12.5811ZM82.1064 7.79785C82.4503 7.79785 83.3739 7.7976 83.374 9.20508C83.374 10.0464 83.0572 10.6746 82.1895 10.6748H81.2939V7.79785H82.1064Z" fill="#151515"/>
<path d="M98.6655 3.0752C98.0167 3.0752 97.4464 3.30875 96.9962 3.76354C96.5323 4.23131 96.2734 4.84634 96.2734 5.48733C96.2734 6.12247 96.5187 6.71739 96.9696 7.17802C97.4263 7.64579 98.0297 7.90659 98.6655 7.90659C99.2883 7.90659 99.8916 7.65941 100.362 7.19814C100.819 6.75048 101.065 6.15556 101.065 5.48733C101.065 4.83921 100.826 4.25142 100.382 3.79728C99.9182 3.32238 99.3214 3.0752 98.6655 3.0752ZM98.6719 3.42943C99.2357 3.42943 99.732 3.64352 100.13 4.04381C100.514 4.43827 100.713 4.93911 100.713 5.52106C100.713 6.06213 100.501 6.57013 100.117 6.94447C99.7125 7.33827 99.2019 7.54587 98.6395 7.54587C98.1224 7.54587 97.6124 7.32529 97.2206 6.93084C96.8365 6.53703 96.6315 6.02905 96.6315 5.48733C96.6315 4.94625 96.8501 4.42529 97.2478 4.01786C97.6319 3.6299 98.1159 3.42943 98.6719 3.42943ZM97.6916 4.09052V6.79719H98.2684V5.66833H98.6855L99.2156 6.79719H99.8585L99.2616 5.57426C99.6463 5.48733 99.8585 5.22003 99.8585 4.82623C99.8585 4.35133 99.4809 4.09052 98.7251 4.09052H97.6916ZM98.2684 4.45838H98.6193C99.0566 4.45838 99.2688 4.58488 99.2688 4.89241C99.2688 5.18695 99.0696 5.30762 98.6459 5.30762H98.2684V4.45838Z" fill="#151515"/>
</g>
<defs>
<clipPath id="clip0_263_189">
<rect width="101.307" height="22.5" fill="white"/>
</clipPath>
</defs>
</svg>
