<svg width="19" height="19" viewBox="0 0 19 19" fill="none" xmlns="http://www.w3.org/2000/svg">
<mask id="path-1-inside-1_260_55" fill="white">
<path d="M9.375 18.9771L0 8.88135H3.75V0.227051H15V8.88135H18.75L9.375 18.9771Z"/>
</mask>
<path d="M9.375 18.9771L8.31811 19.9585L9.375 21.0966L10.4319 19.9585L9.375 18.9771ZM0 8.88135V7.43904H-3.30762L-1.05689 9.86279L0 8.88135ZM3.75 8.88135V10.3237H5.19231V8.88135H3.75ZM3.75 0.227051V-1.21526H2.30769V0.227051H3.75ZM15 0.227051H16.4423V-1.21526H15V0.227051ZM15 8.88135H13.5577V10.3237H15V8.88135ZM18.75 8.88135L19.8069 9.86279L22.0576 7.43904H18.75V8.88135ZM9.375 18.9771L10.4319 17.9956L1.05689 7.8999L0 8.88135L-1.05689 9.86279L8.31811 19.9585L9.375 18.9771ZM0 8.88135V10.3237H3.75V8.88135V7.43904H0V8.88135ZM3.75 8.88135H5.19231V0.227051H3.75H2.30769V8.88135H3.75ZM3.75 0.227051V1.66936H15V0.227051V-1.21526H3.75V0.227051ZM15 0.227051H13.5577V8.88135H15H16.4423V0.227051H15ZM15 8.88135V10.3237H18.75V8.88135V7.43904H15V8.88135ZM18.75 8.88135L17.6931 7.8999L8.31811 17.9956L9.375 18.9771L10.4319 19.9585L19.8069 9.86279L18.75 8.88135Z" fill="#0D0D0D" mask="url(#path-1-inside-1_260_55)"/>
</svg>
