<svg width="90" height="20" viewBox="0 0 90 20" fill="none" xmlns="http://www.w3.org/2000/svg">
<path fill-rule="evenodd" clip-rule="evenodd" d="M38.1848 9.6285C38.7243 9.41976 39.1872 9.05121 39.5114 8.57218C39.8357 8.09316 40.0059 7.52651 39.9993 6.94809C39.9993 4.53572 38.2879 3.33984 35.9374 3.33984H29.7725V16.4574H36.4735C38.5353 16.4574 40.556 15.0141 40.556 12.8079C40.556 10.1852 38.1848 9.65325 38.1848 9.6285ZM32.989 6.06149H35.3807C35.5339 6.052 35.6874 6.0728 35.8325 6.12271C35.9776 6.17262 36.1114 6.25065 36.2263 6.35235C36.3412 6.45404 36.435 6.5774 36.5021 6.71536C36.5693 6.85332 36.6086 7.00317 36.6178 7.15634C36.6178 7.20307 36.6178 7.2505 36.6178 7.29861C36.6113 7.62109 36.4777 7.92794 36.2459 8.15231C36.0142 8.37669 35.7032 8.50042 35.3807 8.49655H32.9683L32.989 6.06149ZM35.4013 13.711H33.0096V11.1337H35.3395C36.5147 11.1337 37.0714 11.6491 37.0714 12.412C37.0714 13.3646 36.3704 13.711 35.4013 13.711Z" fill="#151515"/>
<path fill-rule="evenodd" clip-rule="evenodd" d="M47.6486 3.00977C43.8547 3.00977 41.6279 6.04069 41.6279 9.87575C41.6279 13.7108 43.8547 16.7417 47.6486 16.7417C51.4424 16.7417 53.6692 13.7314 53.6692 9.87575C53.6692 6.02008 51.463 3.00977 47.6486 3.00977ZM47.6486 13.6077C45.7929 13.6077 44.865 11.9376 44.865 9.87575C44.865 7.81389 45.7929 6.16441 47.6486 6.16441C49.5042 6.16441 50.4527 7.83451 50.4527 9.87575C50.4527 11.9582 49.5042 13.6077 47.6486 13.6077Z" fill="#151515"/>
<path fill-rule="evenodd" clip-rule="evenodd" d="M60.6585 8.49441L60.2049 8.39132C59.0915 8.16452 58.2049 7.87586 58.2049 7.07173C58.2049 6.20575 59.0502 5.85524 59.7925 5.85524C60.2989 5.86278 60.7983 5.97471 61.2595 6.18402C61.7207 6.39333 62.1338 6.69553 62.4729 7.07173L64.5141 5.05111C63.5863 3.99957 62.0811 2.98926 59.7306 2.98926C56.9677 2.98926 54.8647 4.53565 54.8647 7.11297C54.8647 9.46348 56.5554 10.6181 58.6172 11.0511L59.0708 11.1542C60.7822 11.5047 61.4213 11.7728 61.4213 12.5975C61.4213 13.381 60.7203 13.8965 59.6482 13.8965C58.3698 13.8965 57.2152 13.3398 56.3286 12.2058L54.2461 14.2676C55.4007 15.6491 56.8646 16.7212 59.6894 16.7212C62.143 16.7212 64.7616 15.3192 64.7616 12.4532C64.8028 9.46349 62.5348 8.88617 60.6585 8.49441Z" fill="#151515"/>
<path fill-rule="evenodd" clip-rule="evenodd" d="M72.1018 13.6076C70.6585 13.6076 69.1533 12.4117 69.1533 9.79316C69.1533 7.46326 70.5554 6.16429 72.0193 6.16429C73.174 6.16429 73.8544 6.70038 74.3905 7.62821L77.0296 5.87563C75.7101 3.87563 74.143 3.03027 71.9781 3.03027C68.0193 3.03027 65.875 6.10244 65.875 9.81378C65.875 13.7107 68.2461 16.7622 71.9369 16.7622C74.5348 16.7622 75.7719 15.855 77.1121 13.9169L74.4523 12.1272C73.9162 12.989 73.3389 13.6076 72.1018 13.6076Z" fill="#151515"/>
<path fill-rule="evenodd" clip-rule="evenodd" d="M85.8348 3.33984V8.16459H81.8554V3.33984H78.4121V16.4532H81.8554V11.278H85.8348V16.4532H89.2781V3.33984H85.8348Z" fill="#151515"/>
<path d="M9.93815 0C7.97257 0 6.05113 0.582862 4.41681 1.67488C2.78249 2.7669 1.5087 4.31902 0.756501 6.13498C0.00430604 7.95094 -0.192502 9.94917 0.190963 11.877C0.574429 13.8048 1.52095 15.5756 2.91082 16.9655C4.30069 18.3553 6.0715 19.3019 7.99931 19.6853C9.92712 20.0688 11.9254 19.872 13.7413 19.1198C15.5573 18.3676 17.1094 17.0938 18.2014 15.4595C19.2934 13.8252 19.8763 11.9037 19.8763 9.93814C19.8763 7.30239 18.8292 4.77458 16.9655 2.91082C15.1017 1.04705 12.5739 0 9.93815 0ZM9.93815 18.9485C8.15608 18.9485 6.41403 18.42 4.93229 17.4299C3.45055 16.4399 2.29568 15.0327 1.61371 13.3862C0.93174 11.7398 0.753305 9.92815 1.10097 8.18032C1.44863 6.43249 2.30678 4.82701 3.5669 3.56689C4.82701 2.30678 6.4325 1.44863 8.18033 1.10097C9.92815 0.753301 11.7398 0.931735 13.3862 1.6137C15.0327 2.29567 16.4399 3.45055 17.4299 4.93229C18.42 6.41402 18.9485 8.15607 18.9485 9.93814C18.9479 12.3277 17.9984 14.6192 16.3088 16.3088C14.6192 17.9984 12.3277 18.9479 9.93815 18.9485Z" fill="#151515"/>
<path d="M14.0411 3.73242H13.3607V7.13448H6.53593V3.73242H5.8349C4.80811 4.4098 3.96544 5.33136 3.38239 6.4145C2.79934 7.49764 2.49414 8.70851 2.49414 9.93861C2.49414 11.1687 2.79934 12.3796 3.38239 13.4627C3.96544 14.5459 4.80811 15.4674 5.8349 16.1448H6.53593V12.7469H13.3607V16.1489H14.0411C15.0683 15.4719 15.9114 14.5504 16.4948 13.4672C17.0781 12.3841 17.3835 11.173 17.3835 9.94273C17.3835 8.71245 17.0781 7.5014 16.4948 6.41822C15.9114 5.33504 15.0683 4.4136 14.0411 3.73655V3.73242ZM5.58747 14.8087C4.94802 14.2405 4.42674 13.552 4.05341 12.7823C3.68009 12.0127 3.46202 11.177 3.41166 10.3231C3.36131 9.46916 3.47965 8.61367 3.75994 7.80548C4.04022 6.99729 4.47696 6.25223 5.04521 5.61283C5.21553 5.42258 5.39658 5.24222 5.58747 5.07263V14.8087ZM13.3607 11.7984H6.53593V8.06232H13.3607V11.7984ZM14.2885 14.7881V12.7262V7.13448V5.07263C14.9264 5.64542 15.4452 6.33829 15.8152 7.11165C16.1852 7.88501 16.3992 8.72371 16.445 9.5798C16.4907 10.4359 16.3674 11.2926 16.0819 12.101C15.7964 12.9094 15.3545 13.6537 14.7813 14.2912C14.6254 14.4636 14.4609 14.6281 14.2885 14.784V14.7881Z" fill="#151515"/>
</svg>
