<svg width="94" height="30" viewBox="0 0 94 30" fill="none" xmlns="http://www.w3.org/2000/svg">
<path d="M25.3713 28.0612C25.2661 28.035 24.7273 27.9429 24.1884 27.8641C21.9277 27.5092 19.6276 26.7995 18.2082 26.0503C17.8533 25.8532 17.5247 25.656 17.4853 25.6034C17.4458 25.5509 17.1961 25.4194 16.9333 25.3143C16.6704 25.196 16.3812 25.0383 16.2761 24.9463C16.1841 24.8543 15.8424 24.6045 15.5138 24.3811C14.896 23.9605 12.8588 22.1073 12.7668 21.8839C12.7405 21.8181 12.6748 21.7261 12.6354 21.6867C12.3331 21.4633 11.0713 19.2289 10.6376 18.2037C10.4273 17.7043 10.125 15.6802 10.125 14.8127C10.125 13.9584 10.1381 13.9321 10.4536 13.9321C10.769 13.9321 10.7822 13.9716 10.7953 14.7602C10.7953 15.207 10.8216 15.6933 10.8479 15.8379C10.8742 15.9825 10.9267 16.3374 10.9793 16.6134C11.1108 17.4808 11.7942 19.0055 12.5434 20.1489C14.2126 22.6462 17.1698 24.9068 20.3768 26.1292C23.1632 27.1806 25.1216 27.4698 29.5509 27.4698C32.8367 27.4698 32.9944 27.4829 32.9944 27.7195C32.9944 27.8641 32.8761 27.9955 32.7053 28.0481C32.403 28.127 25.7656 28.1401 25.3713 28.0612Z" fill="#151515"/>
<path d="M23.0443 20.1099C23.0049 20.031 22.9917 17.5207 23.0049 14.5634L23.0443 9.17463L26.4353 9.13519C26.4353 9.13519 29.4977 8.95119 30.6149 9.45064C31.7321 9.95008 32.1001 10.489 32.1658 11.7113C32.2052 12.5393 32.1658 12.7233 31.9029 13.1308C31.7321 13.3805 31.3115 13.7354 30.9697 13.9194C30.628 14.0902 30.3257 14.2742 30.2863 14.34C30.2863 14.34 30.5229 14.5503 30.8777 14.6685C33.1384 15.4834 33.2436 18.5327 31.0355 19.663C30.2469 20.0705 28.4594 20.2808 25.7124 20.2808C23.7409 20.2808 23.0837 20.2413 23.0443 20.1099ZM29.1428 17.7967C29.4846 17.4812 29.5503 17.3104 29.5503 16.8372C29.5371 15.7857 28.9325 15.4177 27.1845 15.4177H26.0016V16.7058C26.0016 17.4155 26.041 18.0464 26.0936 18.0858C26.133 18.1384 26.7507 18.1778 27.4605 18.1778C28.6828 18.1778 28.7485 18.1647 29.1428 17.7967ZM28.4988 13.3936C28.7485 13.3016 29.0377 13.0782 29.1297 12.9073C29.34 12.513 29.248 11.6587 28.9588 11.3433C28.6828 11.041 27.5525 10.7913 26.6982 10.8438L26.0673 10.8833L26.0278 12.053C26.0016 12.697 26.0147 13.3016 26.0541 13.4068C26.1461 13.6302 27.8548 13.6171 28.4988 13.3936Z" fill="#151515"/>
<path d="M34.1768 15.194C34.1768 11.0013 34.2162 9.71326 34.3345 9.64754C34.6368 9.46353 40.617 9.41096 41.4582 9.59497C42.7725 9.87098 43.64 10.9093 43.64 12.2236C43.64 13.3803 43.0091 14.274 41.8656 14.7077L41.2347 14.9443L41.7473 15.1152C42.9697 15.5095 43.2457 15.9695 43.5085 18.0067C43.64 19.045 43.7451 19.5839 43.9686 20.3462L44.0606 20.6354H42.4176H40.7747L40.6301 20.2148C40.5513 19.9782 40.4067 19.1502 40.3147 18.3747C40.2096 17.5993 40.0387 16.8238 39.9204 16.6529C39.6838 16.2849 39.2238 16.1666 38.0409 16.1666H37.1997V18.401V20.6354H35.6882H34.1768V15.194ZM39.8284 13.998C40.6564 13.5643 40.8799 12.5522 40.3016 11.8688C39.9993 11.5139 39.9335 11.5008 38.5929 11.4613L37.1997 11.4088V12.8019V14.1951H38.3169C39.0661 14.1951 39.5787 14.1294 39.8284 13.998Z" fill="#151515"/>
<path d="M45.0993 19.9518C45.2438 19.5706 45.5987 18.7294 45.8747 18.0723C46.1507 17.4283 46.7027 16.0876 47.097 15.115C47.9908 12.9201 48.9371 10.6069 49.2131 9.96283L49.4234 9.46338H51.2372H53.0378L53.2876 10.0943C53.419 10.436 53.6424 10.9486 53.7607 11.2377C53.8922 11.5269 54.6808 13.4195 55.5088 15.4436C56.3368 17.4677 57.1517 19.4129 57.2963 19.7546C57.454 20.1095 57.5723 20.4512 57.5723 20.5169C57.5723 20.5827 56.8363 20.6352 55.9425 20.6352H54.3127L53.9579 19.6889C53.7607 19.1632 53.5899 18.6637 53.5636 18.5717C53.5241 18.4534 52.8538 18.4009 51.1846 18.3746C49.9097 18.3483 48.8188 18.3614 48.7662 18.4009C48.7005 18.4403 48.4771 18.9397 48.2668 19.518L47.8725 20.5695L46.3479 20.6089L44.8232 20.6484L45.0993 19.9518ZM52.6698 16.1402C52.6435 16.0482 52.3018 15.0099 51.9075 13.8401C51.5264 12.6572 51.1583 11.6977 51.1189 11.6977C51.0269 11.6977 49.5549 15.9693 49.5549 16.2059C49.5549 16.2585 50.2646 16.2979 51.1452 16.2979C52.3675 16.2979 52.7224 16.2585 52.6698 16.1402Z" fill="#151515"/>
<path d="M58.7812 15.0887L58.8206 9.52906L60.9235 9.48962L63.0265 9.46334L63.7888 11.0537C64.2094 11.9211 64.9454 13.6298 65.4054 14.8258C65.8786 16.035 66.3517 17.2311 66.4437 17.4808C66.6672 18.0328 66.6409 18.4928 66.6803 13.4063L66.7066 9.52906L68.1261 9.48962L69.5324 9.4502V15.0493V20.6352H67.2586H64.9717L63.9202 18.3745C63.3419 17.1259 62.5796 15.299 62.2247 14.3264L61.5807 12.552L61.515 16.5608L61.4493 20.5695L60.0955 20.6089L58.7549 20.6483L58.7812 15.0887Z" fill="#151515"/>
<path d="M71.7929 15.0885L71.8323 9.52889L74.8553 9.48946C78.1806 9.45003 78.8377 9.52889 80.0338 10.1335C81.6636 10.9484 82.4127 12.3021 82.5179 14.5759C82.6099 16.7314 82.163 18.1509 81.0984 19.1104C79.8498 20.2407 78.036 20.635 74.1587 20.635H71.7666L71.7929 15.0885ZM77.4708 18.3481C78.1148 18.0852 78.7983 17.4149 79.1006 16.784C79.4949 15.9428 79.4686 14.1159 79.0612 13.1827C78.5354 12.013 77.4051 11.4347 75.6439 11.4347H74.921V14.8914C74.921 16.7972 74.9604 18.4007 75.013 18.4401C75.1707 18.6109 77.0239 18.5321 77.4708 18.3481Z" fill="#151515"/>
<path d="M86.8822 16.0351V11.4349H85.1078H83.3203L83.3597 10.4886L83.3992 9.5291L88.4988 9.48967L93.5984 9.46338L93.559 10.4623L93.5196 11.4612L91.8109 11.4743L90.1023 11.5006L90.0629 16.0745L90.0366 20.6352H88.4594H86.8822V16.0351Z" fill="#151515"/>
<path d="M35.185 26.2871C35.8553 25.643 35.8684 25.6299 36.6965 25.6299L37.5245 25.643L36.7359 26.0505C36.0261 26.4185 34.7381 26.9442 34.5672 26.9442C34.5278 26.9442 34.8038 26.6419 35.185 26.2871Z" fill="#151515"/>
<mask id="mask0_263_259" style="mask-type:luminance" maskUnits="userSpaceOnUse" x="0" y="0" width="43" height="30">
<path d="M0 30H42.0587V5.91278e-05H0V30Z" fill="white"/>
</mask>
<g mask="url(#mask0_263_259)">
<path fill-rule="evenodd" clip-rule="evenodd" d="M27.4509 27.353H25.8823L24.3137 27.1569L23.6274 26.9608L22.8431 26.8627L22.1568 26.6667L21.3725 26.3726L20.6862 26.1765L19.3137 25.5882L18.6274 25.1961L17.9411 24.902L16.7647 24.1177L16.1764 23.6275L15.5882 23.2353L15.098 22.7451L14.6078 22.353L14.1176 21.8628L13.6274 21.2745L12.8431 20.2941L11.6666 17.9412L11.4706 17.353L11.1765 15.5883V13.6275L11.3725 13.0393L11.4706 12.451L11.8627 11.2746L12.451 10.0981L12.7451 9.60788L13.1372 9.01967L13.9215 8.03927L14.9019 7.05887L15.3921 6.66673L15.8823 6.17651L17.0588 5.39223L17.647 5.09813L18.3333 4.70594L21.0784 3.52947L22.647 3.13733L23.3333 3.03929L24.1176 2.84322L24.9999 2.74519L25.7842 2.64715H29.2156L30.098 2.74519L31.6666 2.94126L32.3529 3.13733L33.1372 3.3334L33.8235 3.43143L34.5097 3.6275L35.098 3.92166L36.2744 4.3138L36.8627 4.6079L37.3528 4.90201L37.843 5.09813L38.3332 5.39223L38.7254 5.5883L39.2156 5.88241L39.5097 6.17651L39.9019 6.37263L40.196 6.66673L40.7842 7.05887L41.3724 7.64713L41.5685 7.74517L41.6665 7.94124L41.8626 8.03927V8.13731V5.91278e-05H8.92155V12.6471H7.45098V5.91278e-05H0V30H7.45098V16.3726H8.92155V30H41.8626L41.9607 21.6667H41.8626L41.1764 22.353L40.294 22.9412L39.9999 23.2353L39.7058 23.4314L38.9215 24.0196L38.4313 24.2157L38.0391 24.5098L37.0587 25.0981L36.4705 25.2941L35.8823 25.5882L35.294 25.7843L34.7058 26.0785L34.1176 26.2745L31.3725 27.0589L30.5881 27.1569L29.9019 27.2549L29.1176 27.353H27.4509Z" fill="#151515"/>
</g>
</svg>
