<svg width="19" height="20" viewBox="0 0 19 20" fill="none" xmlns="http://www.w3.org/2000/svg">
<mask id="path-1-inside-1_260_19" fill="white">
<path d="M14.7915 8.88428C15.6201 10.0035 16.1108 11.3878 16.1108 12.8872C16.1108 16.6073 13.0955 19.6233 9.37549 19.6235C5.65532 19.6235 2.63916 16.6074 2.63916 12.8872C2.63919 11.3677 3.14192 9.96535 3.99072 8.83838L9.37061 0.873535L14.7915 8.88428Z"/>
</mask>
<path d="M14.7915 8.88428L13.597 9.69261L13.6141 9.7179L13.6323 9.74244L14.7915 8.88428ZM16.1108 12.8872L17.5531 12.8872L17.5531 12.8872L16.1108 12.8872ZM9.37549 19.6235L9.37549 21.0658L9.37556 21.0658L9.37549 19.6235ZM2.63916 12.8872L1.19685 12.8872V12.8872H2.63916ZM3.99072 8.83838L5.14281 9.7061L5.16515 9.67645L5.18593 9.64568L3.99072 8.83838ZM9.37061 0.873535L10.5651 0.0652057L9.3695 -1.70162L8.1754 0.0662307L9.37061 0.873535ZM14.7915 8.88428L13.6323 9.74244C14.2837 10.6224 14.6685 11.7078 14.6685 12.8872L16.1108 12.8872L17.5531 12.8872C17.5531 11.0677 16.9564 9.38464 15.9507 8.02611L14.7915 8.88428ZM16.1108 12.8872H14.6685C14.6685 15.8109 12.2987 18.1811 9.37541 18.1812L9.37549 19.6235L9.37556 21.0658C13.8923 21.0656 17.5531 17.4036 17.5531 12.8872H16.1108ZM9.37549 19.6235V18.1812C6.45188 18.1812 4.08147 15.8108 4.08147 12.8872H2.63916H1.19685C1.19685 17.4039 4.85875 21.0658 9.37549 21.0658V19.6235ZM2.63916 12.8872L4.08147 12.8872C4.08149 11.6911 4.47607 10.5913 5.14281 9.7061L3.99072 8.83838L2.83863 7.97066C1.80777 9.33935 1.19689 11.0443 1.19685 12.8872L2.63916 12.8872ZM3.99072 8.83838L5.18593 9.64568L10.5658 1.68084L9.37061 0.873535L8.1754 0.0662307L2.79552 8.03107L3.99072 8.83838ZM9.37061 0.873535L8.1761 1.68186L13.597 9.69261L14.7915 8.88428L15.986 8.07595L10.5651 0.0652057L9.37061 0.873535Z" fill="#0D0D0D" mask="url(#path-1-inside-1_260_19)"/>
<path d="M12.7824 12.2701C12.7824 12.7746 12.6831 13.2742 12.49 13.7403C12.2969 14.2065 12.0139 14.63 11.6572 14.9868C11.3004 15.3435 10.8769 15.6265 10.4108 15.8196C9.94463 16.0127 9.44505 16.112 8.94052 16.112" stroke="#0D0D0D" stroke-width="1.44231"/>
</svg>
