<svg width="85" height="15" viewBox="0 0 85 15" fill="none" xmlns="http://www.w3.org/2000/svg">
<g clip-path="url(#clip0_263_276)">
<path d="M9.66068 13.4447C8.21156 15.0478 6.02982 14.9995 6.02982 14.9995C3.30209 14.9995 1.98096 13.2863 1.98096 13.2863C-1.10839 9.94857 0.340288 5.42442 0.340288 5.42442C2.02347 0.768251 6.28536 1.25159 6.28536 1.25159C11.7829 1.25159 12.0814 5.95162 12.0814 5.95162L8.37581 5.95341C8.37581 5.95341 8.09878 4.52621 6.39411 4.52621C6.39411 4.52621 3.9434 4.1749 3.9434 8.10606C3.9434 8.10606 3.87986 11.378 6.37263 11.6635C6.37263 11.6635 8.31181 11.8327 8.75935 10.1638L7.16119 10.1661V7.35688H12.5222V14.6481H9.94398L9.66068 13.4447Z" fill="#151515"/>
<path d="M18.6299 4.29154H18.6475V4.27393H18.6299V4.29154Z" fill="#151515"/>
<path d="M30.7878 13.4447C29.2948 15.0478 27.0455 14.9995 27.0455 14.9995C24.2345 14.9995 22.8731 13.2863 22.8731 13.2863C19.6884 9.94857 21.1818 5.42442 21.1818 5.42442C22.9169 0.768251 27.3095 1.25159 27.3095 1.25159C32.9753 1.25159 33.2828 5.95162 33.2828 5.95162L29.4635 5.95341C29.4635 5.95341 29.1784 4.52621 27.4209 4.52621C27.4209 4.52621 24.8955 4.1749 24.8955 8.10606C24.8955 8.10606 24.8297 11.378 27.3995 11.6635C27.3995 11.6635 29.3977 11.8327 29.8591 10.1638L28.2117 10.1661V7.35688H33.7375V14.6481H31.08L30.7878 13.4447Z" fill="#151515"/>
<path d="M41.0392 10.0366C42.7305 10.1901 42.6204 13.6822 42.6204 13.6822C42.6204 14.5827 43.0818 14.6485 43.0818 14.6485H47.1888C46.5954 14.2971 46.6831 13.5068 46.6831 13.5068L46.5077 11.53C46.4858 9.35588 44.7287 8.54316 44.7287 8.54316C46.7708 7.4449 46.6616 5.49051 46.6616 5.49051C47.0125 1.07646 40.9954 1.4497 40.9954 1.4497H34.8682V14.6485H38.9202L38.9224 10.0366H41.0392ZM38.9313 4.61244H41.1932C41.1932 4.61244 42.6204 4.49161 42.6204 5.8199C42.6204 5.8199 42.7524 7.09359 41.0612 7.09359H38.9313V4.61244Z" fill="#151515"/>
<path d="M55.534 9.88308L54.3042 6.23745L53.0739 9.88308H55.534ZM56.4998 1.44971L61.1564 14.6485H57.1035L56.4998 12.8037H52.2397L51.636 14.6485H47.584L52.2397 1.44971H56.4998Z" fill="#151515"/>
<path d="M71.9176 5.33652C71.9176 5.33652 72.1593 1.22993 66.5593 1.22993C66.5593 1.22993 61.047 0.747034 61.047 5.33652C61.047 5.33652 60.8492 7.66505 63.55 8.719L66.6465 9.72909C66.6465 9.72909 69.1281 10.2563 68.0742 11.3984C68.0742 11.3984 67.24 12.1888 65.5487 11.5738C65.5487 11.5738 64.7579 11.2664 64.6921 10.1686H60.6294C60.6294 10.1686 60.454 14.9997 66.6465 14.9997C66.6465 14.9997 72.4444 15.1318 72.4444 10.3879C72.4444 10.3879 72.6426 7.57689 69.1281 6.61066L65.9 5.66591C65.9 5.66591 64.9996 5.49047 64.9996 4.91942C64.9996 4.91942 64.8457 4.23871 66.3395 4.23871C66.3395 4.23871 67.9426 4.28257 67.9426 5.33652H71.9176Z" fill="#151515"/>
<path d="M84.3478 5.33603C84.3478 5.33603 84.5894 1.22944 78.9894 1.22944C78.9894 1.22944 73.4766 0.746546 73.4766 5.33603C73.4766 5.33603 73.2793 7.66457 75.9806 8.71851L79.0771 9.7286C79.0771 9.7286 81.5583 10.2558 80.5039 11.3979C80.5039 11.3979 79.6697 12.1883 77.9784 11.5733C77.9784 11.5733 77.1876 11.2659 77.1223 10.1681H73.0591C73.0591 10.1681 72.8841 14.9992 79.0771 14.9992C79.0771 14.9992 84.8745 15.1313 84.8745 10.3874C84.8745 10.3874 85.0723 7.5764 81.5583 6.61017L78.3302 5.66542C78.3302 5.66542 77.4293 5.48998 77.4293 4.91893C77.4293 4.91893 77.2758 4.23823 78.7692 4.23823C78.7692 4.23823 80.3727 4.28208 80.3727 5.33603H84.3478Z" fill="#151515"/>
<path d="M15.6856 6.89609C16.0701 6.89609 16.3815 6.58416 16.3815 6.20017V0.695918C16.3815 0.311932 16.0701 0 15.6856 0C15.3012 0 14.9893 0.311932 14.9893 0.695918V6.20017C14.9893 6.58416 15.3012 6.89609 15.6856 6.89609Z" fill="#151515"/>
<path d="M18.7008 5.11958C18.8874 4.78348 18.7657 4.35966 18.4296 4.17348L13.6154 1.50527C13.2793 1.3191 12.8555 1.44038 12.6693 1.77693C12.4832 2.11302 12.6045 2.53684 12.9406 2.72302L17.7547 5.39123C18.0908 5.57741 18.5146 5.45612 18.7008 5.11958Z" fill="#151515"/>
<path d="M12.6693 5.11958C12.4832 4.78348 12.6044 4.35966 12.941 4.17348L17.7547 1.50527C18.0908 1.3191 18.5146 1.44038 18.7008 1.77693C18.8874 2.11302 18.7657 2.53684 18.4296 2.72302L13.6154 5.39123C13.2793 5.57741 12.856 5.45612 12.6693 5.11958Z" fill="#151515"/>
</g>
<defs>
<clipPath id="clip0_263_276">
<rect width="84.8756" height="15" fill="white"/>
</clipPath>
</defs>
</svg>
