<svg width="100" height="15" viewBox="0 0 100 15" fill="none" xmlns="http://www.w3.org/2000/svg">
<g clip-path="url(#clip0_263_231)">
<path d="M80.5669 9.39973H77.0375L78.8248 3.70096L80.5669 9.39973ZM45.9675 11.548C44.4013 11.548 42.7277 10.4681 42.7277 7.43488C42.7277 4.40242 44.4013 3.32248 45.9675 3.32248C47.5337 3.32248 49.2073 4.40242 49.2073 7.43488C49.2073 10.4681 47.5337 11.548 45.9675 11.548ZM33.7953 14.5104H37.601V0.3594H33.7953V5.47157H29.043V0.3594H25.2373V14.5104H29.043V8.72988H33.7953V14.5104ZM66.6619 14.5104H70.2497V0.3594H64.7088L62.2903 9.6279L59.8717 0.3594H54.3317V14.5104H57.9186V4.06634L60.8377 14.5104H63.7428L66.6619 4.06634V14.5104ZM82.1183 14.5104H86.0921L80.7483 0.3594H76.9176L71.5738 14.5104H75.4869L76.3805 11.9936H81.2441L82.1183 14.5104ZM45.9675 0.0649414C43.8245 0.0649414 42.0225 0.808025 40.7552 2.2148C39.5728 3.52752 38.922 5.38138 38.922 7.43488C38.922 9.48915 39.5735 11.343 40.7552 12.6557C42.0217 14.0625 43.8237 14.8056 45.9675 14.8056C48.1113 14.8056 49.9126 14.0625 51.1798 12.6557C52.3623 11.343 53.013 9.48915 53.013 7.43488C53.013 5.38138 52.3615 3.52675 51.1798 2.2148C49.9126 0.808796 48.1105 0.0649414 45.9675 0.0649414ZM92.9936 0.0649414C90.9433 0.0649414 89.1015 0.828066 87.8093 2.21325C86.5576 3.55527 85.8687 5.4099 85.8687 7.43488C85.8687 9.46063 86.5576 11.3145 87.8093 12.6565C89.1015 14.0417 90.9433 14.8056 92.9936 14.8056C93.2248 14.8056 95.2892 14.7632 96.6608 13.2971L96.8655 13.0781L97.324 14.5096H99.6025V6.71107H93.5915V9.53617H96.1167L96.0513 9.75817C95.7197 10.879 94.5474 11.548 92.915 11.548C91.3488 11.548 89.6752 10.4681 89.6752 7.43488C89.6752 4.40242 91.3488 3.32248 92.915 3.32248C94.3971 3.32248 95.4441 3.97461 95.6356 4.9975H99.4429C99.0093 1.59273 95.9158 0.0649414 92.9936 0.0649414Z" fill="#151515"/>
<path d="M18.6309 11.6027C17.6992 12.3528 16.5105 12.8029 15.2152 12.8029C12.2214 12.8029 9.79427 10.3995 9.79427 7.43485C9.79427 4.47023 12.2214 2.06677 15.2152 2.06677C16.5105 2.06677 17.6984 2.51694 18.6309 3.26696V0.359375H9.89624H6.82536H6.8238V5.95485H3.59724V0.359375H0.307617V14.5103H3.59724V8.76146H6.8238V14.5042H6.82536V14.5103H18.6309V11.6027ZM15.2152 9.89998C16.5899 9.89998 17.7046 8.79615 17.7046 7.43485C17.7046 6.07356 16.5907 4.96973 15.2152 4.96973C13.8397 4.96973 12.7258 6.07356 12.7258 7.43485C12.7266 8.79615 13.8405 9.89998 15.2152 9.89998Z" fill="#151515"/>
</g>
<defs>
<clipPath id="clip0_263_231">
<rect width="100" height="15" fill="white"/>
</clipPath>
</defs>
</svg>
