<svg width="156" height="45" viewBox="0 0 156 45" fill="none" xmlns="http://www.w3.org/2000/svg">
<path d="M37.663 0L0 45H77.7717L51.8478 14.1848L44.5109 21.0326L48.4239 14.1848L37.663 0Z" fill="#151515"/>
<path d="M88.5098 15.9922H89.6699C89.9746 15.6797 90.1816 15.3125 90.291 14.8906C90.4004 14.4688 90.4707 13.9414 90.502 13.3086L91.1816 0.195312H97.3223V15.9922H98.7168V19.332H97.6152V17H89.5996V19.332H88.5098V15.9922ZM90.7949 15.9922H96.1973V1.20312H92.2129L91.5918 13.3086C91.5527 13.9805 91.4785 14.5195 91.3691 14.9258C91.2676 15.332 91.0762 15.6875 90.7949 15.9922ZM100.404 12.8984V4.30859C100.404 3.01953 100.709 1.98828 101.318 1.21484C101.936 0.441406 102.854 0.0546875 104.072 0.0546875C105.314 0.0546875 106.244 0.441406 106.861 1.21484C107.486 1.98828 107.799 3.01953 107.799 4.30859V12.8984C107.799 14.1875 107.486 15.2188 106.861 15.9922C106.244 16.7578 105.314 17.1406 104.072 17.1406C102.854 17.1406 101.936 16.7578 101.318 15.9922C100.709 15.2188 100.404 14.1875 100.404 12.8984ZM101.506 12.9688C101.506 13.9453 101.713 14.7188 102.127 15.2891C102.541 15.8516 103.189 16.1328 104.072 16.1328C104.971 16.1328 105.631 15.8477 106.053 15.2773C106.475 14.707 106.686 13.9375 106.686 12.9688V4.22656C106.686 3.25781 106.475 2.48828 106.053 1.91797C105.631 1.34766 104.971 1.0625 104.072 1.0625C103.189 1.0625 102.541 1.34766 102.127 1.91797C101.713 2.48047 101.506 3.25 101.506 4.22656V12.9688ZM109.615 17V0.195312H110.717V8.09375H115.955V0.195312H117.08V17H115.955V9.10156H110.717V17H109.615ZM118.99 17V0.195312H125.787V1.20312H120.092V7.35547H122.494C123.814 7.35547 124.795 7.65234 125.436 8.24609C126.084 8.83203 126.408 9.78125 126.408 11.0938V12.9922C126.408 15.6641 125.166 17 122.682 17H118.99ZM120.092 15.9922H122.682C123.596 15.9922 124.26 15.75 124.674 15.2656C125.096 14.7734 125.307 14.0391 125.307 13.0625V11.0234C125.307 10.0312 125.084 9.34375 124.639 8.96094C124.193 8.57812 123.479 8.38672 122.494 8.38672H120.092V15.9922ZM128.025 17L131.705 0.171875H133.311L137.049 17H135.947L135.115 13.2852H129.877L129.033 17H128.025ZM130.041 12.3242H134.939L132.467 1.44922L130.041 12.3242ZM138.654 12.8984V4.30859C138.654 3.01953 138.951 1.98828 139.545 1.21484C140.139 0.441406 141.049 0.0546875 142.275 0.0546875C143.502 0.0546875 144.412 0.441406 145.006 1.21484C145.6 1.98828 145.896 3.01953 145.896 4.30859V5.69141H144.842V4.22656C144.842 3.25781 144.639 2.48828 144.232 1.91797C143.826 1.34766 143.182 1.0625 142.299 1.0625C141.416 1.0625 140.771 1.34766 140.365 1.91797C139.959 2.48828 139.756 3.25781 139.756 4.22656V12.9688C139.756 13.9375 139.959 14.7031 140.365 15.2656C140.771 15.8281 141.416 16.1094 142.299 16.1094C143.182 16.1094 143.826 15.8281 144.232 15.2656C144.639 14.7031 144.842 13.9375 144.842 12.9688V10.9766H145.896V12.8984C145.896 14.1875 145.6 15.2188 145.006 15.9922C144.412 16.7578 143.502 17.1406 142.275 17.1406C141.049 17.1406 140.139 16.7578 139.545 15.9922C138.951 15.2188 138.654 14.1875 138.654 12.8984ZM147.631 12.8984V4.30859C147.631 3.01953 147.928 1.98828 148.521 1.21484C149.115 0.441406 150.025 0.0546875 151.252 0.0546875C152.479 0.0546875 153.389 0.441406 153.982 1.21484C154.576 1.98828 154.873 3.01953 154.873 4.30859V5.69141H153.818V4.22656C153.818 3.25781 153.615 2.48828 153.209 1.91797C152.803 1.34766 152.158 1.0625 151.275 1.0625C150.393 1.0625 149.748 1.34766 149.342 1.91797C148.936 2.48828 148.732 3.25781 148.732 4.22656V12.9688C148.732 13.9375 148.936 14.7031 149.342 15.2656C149.748 15.8281 150.393 16.1094 151.275 16.1094C152.158 16.1094 152.803 15.8281 153.209 15.2656C153.615 14.7031 153.818 13.9375 153.818 12.9688V10.9766H154.873V12.8984C154.873 14.1875 154.576 15.2188 153.982 15.9922C153.389 16.7578 152.479 17.1406 151.252 17.1406C150.025 17.1406 149.115 16.7578 148.521 15.9922C147.928 15.2188 147.631 14.1875 147.631 12.8984Z" fill="#151515"/>
<path d="M88.709 44V27.1953H91.3223L94.0879 40.6133L96.748 27.1953H99.3613V44H97.5918V30.4883L94.9199 43.9766H93.127L90.3379 30.6055V44H88.709ZM101.295 44V27.1953H108.209V28.9062H103.17V34.6367H107.271V36.3242H103.17V42.3008H108.209V44H101.295ZM109.967 44V27.1953H117.045V28.9062H111.818V34.1328H113.787C116.428 34.1328 117.748 35.4453 117.748 38.0703V39.9219C117.748 42.6406 116.459 44 113.881 44H109.967ZM111.818 42.3008H113.881C114.568 42.3008 115.072 42.1211 115.393 41.7617C115.713 41.3945 115.873 40.8203 115.873 40.0391V37.9531C115.873 37.1641 115.705 36.6133 115.369 36.3008C115.033 35.9805 114.506 35.8203 113.787 35.8203H111.818V42.3008ZM119.576 44V27.1953H126.49V28.9062H121.451V34.6367H125.553V36.3242H121.451V42.3008H126.49V44H119.576ZM127.721 44.0234V42.3242C128.455 42.3242 128.943 42.1445 129.186 41.7852C129.436 41.418 129.572 40.7969 129.596 39.9219L130.053 27.1953H136.885V44H135.021V28.9062H131.799L131.412 39.8281C131.365 41.25 131.096 42.3047 130.604 42.9922C130.111 43.6719 129.256 44.0156 128.037 44.0234H127.721ZM138.889 44V27.1953H140.764V33.8281H142.416C145.025 33.8281 146.33 35.1797 146.33 37.8828V39.8984C146.33 41.2109 146.018 42.2227 145.393 42.9336C144.775 43.6445 143.83 44 142.557 44H138.889ZM140.764 42.3008H142.557C143.229 42.3008 143.717 42.1133 144.021 41.7383C144.326 41.3555 144.479 40.7734 144.479 39.9922V37.7656C144.479 36.9609 144.311 36.3828 143.975 36.0312C143.646 35.6797 143.127 35.5039 142.416 35.5039H140.764V42.3008Z" fill="#151515"/>
</svg>
