<svg width="19" height="20" viewBox="0 0 19 20" fill="none" xmlns="http://www.w3.org/2000/svg">
<mask id="path-1-inside-1_260_32" fill="white">
<path d="M10.8193 3.50732C10.8195 7.88578 14.371 11.4351 18.752 11.4351V11.436C18.7484 11.436 18.7448 11.436 18.7412 11.436C14.4059 11.436 10.8846 14.9116 10.8115 19.2271C10.7385 14.9128 7.22029 11.4372 2.88672 11.4351V11.4341C7.26644 11.4325 10.8164 7.88398 10.8164 3.50635H10.8193V3.50732Z"/>
</mask>
<path d="M10.8193 3.50732L9.37744 3.50732L9.37744 3.50739L10.8193 3.50732ZM18.752 11.4351H20.1938V9.99316H18.752V11.4351ZM18.752 11.436L18.75 12.8779L20.1938 12.8799V11.436H18.752ZM18.7412 11.436L18.7412 9.99414H18.7412V11.436ZM10.8115 19.2271L9.36983 19.2514L12.2532 19.2515L10.8115 19.2271ZM2.88672 11.4351H1.44482V12.8762L2.88601 12.877L2.88672 11.4351ZM2.88672 11.4341L2.88619 9.99219L1.44482 9.99271V11.4341H2.88672ZM10.8164 3.50635V2.06445H9.37451V3.50635H10.8164ZM10.8193 3.50635H12.2612V2.06445H10.8193V3.50635ZM10.8193 3.50732L9.37744 3.50739C9.37767 8.68293 13.5755 12.877 18.752 12.877V11.4351V9.99316C15.1665 9.99316 12.2614 7.08863 12.2612 3.50726L10.8193 3.50732ZM18.752 11.4351H17.3101V11.436H18.752H20.1938V11.4351H18.752ZM18.752 11.436L18.7539 9.99414C18.7492 9.99413 18.742 9.99414 18.7412 9.99414L18.7412 11.436L18.7412 12.8779C18.7476 12.8779 18.7475 12.8779 18.75 12.8779L18.752 11.436ZM18.7412 11.436V9.99414C13.6181 9.99414 9.45622 14.1014 9.36983 19.2026L10.8115 19.2271L12.2532 19.2515C12.313 15.7217 15.1936 12.8779 18.7412 12.8779V11.436ZM10.8115 19.2271L12.2532 19.2027C12.1669 14.1033 8.00886 9.99568 2.88743 9.99316L2.88672 11.4351L2.88601 12.877C6.43172 12.8787 9.31013 15.7223 9.36983 19.2514L10.8115 19.2271ZM2.88672 11.4351H4.32861V11.4341H2.88672H1.44482V11.4351H2.88672ZM2.88672 11.4341L2.88725 12.876C8.0622 12.8741 12.2583 8.68101 12.2583 3.50635H10.8164H9.37451C9.37451 7.08694 6.47068 9.99087 2.88619 9.99219L2.88672 11.4341ZM10.8164 3.50635V4.94824H10.8193V3.50635V2.06445H10.8164V3.50635ZM10.8193 3.50635H9.37744V3.50732H10.8193H12.2612V3.50635H10.8193Z" fill="#0D0D0D" mask="url(#path-1-inside-1_260_32)"/>
<mask id="path-3-inside-2_260_32" fill="white">
<path d="M3.96777 0.623535C3.96783 2.81232 5.74277 4.58565 7.93262 4.58643V4.58838C7.92948 4.58837 7.926 4.58838 7.92285 4.58838C5.76018 4.58856 4.00313 6.31831 3.95898 8.46924C3.91495 6.31993 2.16037 4.59032 0 4.5874V4.58643C2.12004 4.58409 3.85085 2.92066 3.95703 0.827637L3.96191 0.623535H3.96777Z"/>
</mask>
<path d="M3.96777 0.623535L5.40967 0.623498L5.40963 -0.818361H3.96777V0.623535ZM7.93262 4.58643H9.37451V3.14504L7.93313 3.14453L7.93262 4.58643ZM7.93262 4.58838L7.92926 6.03027L9.37451 6.03363V4.58838H7.93262ZM7.92285 4.58838L7.92285 3.14648L7.92273 3.14648L7.92285 4.58838ZM3.95898 8.46924L2.51739 8.49877L5.40058 8.49883L3.95898 8.46924ZM0 4.5874H-1.4419V6.02735L-0.00194785 6.0293L0 4.5874ZM0 4.58643L-0.00158599 3.14453L-1.4419 3.14612V4.58643H0ZM3.95703 0.827637L5.39708 0.900691L5.39805 0.881416L5.39851 0.862122L3.95703 0.827637ZM3.96191 0.623535V-0.818361H2.5541L2.52043 0.58905L3.96191 0.623535ZM3.96777 0.623535L2.52588 0.623573C2.52596 3.60977 4.94743 6.02726 7.9321 6.02832L7.93262 4.58643L7.93313 3.14453C6.53811 3.14403 5.40971 2.01486 5.40967 0.623498L3.96777 0.623535ZM7.93262 4.58643H6.49072V4.58838H7.93262H9.37451V4.58643H7.93262ZM7.93262 4.58838L7.93597 3.14649C7.93226 3.14648 7.92893 3.14648 7.92694 3.14648C7.92411 3.14648 7.92397 3.14648 7.92285 3.14648V4.58838V6.03027C7.92488 6.03027 7.92804 6.03027 7.92853 6.03027C7.92985 6.03027 7.92983 6.03027 7.92926 6.03027L7.93262 4.58838ZM7.92285 4.58838L7.92273 3.14648C4.97399 3.14673 2.57762 5.50544 2.51739 8.43965L3.95898 8.46924L5.40058 8.49883C5.42865 7.13119 6.54637 6.03039 7.92297 6.03027L7.92285 4.58838ZM3.95898 8.46924L5.40058 8.4397C5.34051 5.50797 2.94787 3.14949 0.00194785 3.14551L0 4.5874L-0.00194785 6.0293C1.37287 6.03115 2.48939 7.13189 2.51739 8.49877L3.95898 8.46924ZM0 4.5874H1.4419V4.58643H0H-1.4419V4.5874H0ZM0 4.58643L0.00158599 6.02832C2.89132 6.02514 5.25214 3.7577 5.39708 0.900691L3.95703 0.827637L2.51699 0.754583C2.44957 2.08362 1.34877 3.14305 -0.00158599 3.14453L0 4.58643ZM3.95703 0.827637L5.39851 0.862122L5.4034 0.65802L3.96191 0.623535L2.52043 0.58905L2.51555 0.793151L3.95703 0.827637ZM3.96191 0.623535V2.06543H3.96777V0.623535V-0.818361H3.96191V0.623535Z" fill="#0D0D0D" mask="url(#path-3-inside-2_260_32)"/>
</svg>
