<svg width="19" height="19" viewBox="0 0 19 19" fill="none" xmlns="http://www.w3.org/2000/svg">
<mask id="path-1-outside-1_260_11" maskUnits="userSpaceOnUse" x="1.88379" y="8.94067" width="15" height="10" fill="black">
<rect fill="white" x="1.88379" y="8.94067" width="15" height="10"/>
<path d="M14.8675 17.4311C14.8675 15.7097 14.2889 14.0588 13.259 12.8417C12.2291 11.6245 10.8322 10.9407 9.37565 10.9407C7.91912 10.9407 6.52224 11.6245 5.49232 12.8417C4.46239 14.0588 3.88379 15.7097 3.88379 17.4311L9.37565 17.4311H14.8675Z"/>
</mask>
<path d="M14.8675 17.4311C14.8675 15.7097 14.2889 14.0588 13.259 12.8417C12.2291 11.6245 10.8322 10.9407 9.37565 10.9407C7.91912 10.9407 6.52224 11.6245 5.49232 12.8417C4.46239 14.0588 3.88379 15.7097 3.88379 17.4311L9.37565 17.4311H14.8675Z" stroke="#0D0D0D" stroke-width="2.88462" mask="url(#path-1-outside-1_260_11)"/>
<mask id="path-2-outside-2_260_11" maskUnits="userSpaceOnUse" x="1.88379" y="0.0754395" width="15" height="10" fill="black">
<rect fill="white" x="1.88379" y="0.0754395" width="15" height="10"/>
<path d="M14.8675 1.56582C14.8675 3.28718 14.2889 4.93803 13.259 6.15522C12.2291 7.3724 10.8322 8.05621 9.37565 8.05621C7.91912 8.05621 6.52224 7.3724 5.49232 6.15522C4.46239 4.93804 3.88379 3.28718 3.88379 1.56582L9.37565 1.56582L14.8675 1.56582Z"/>
</mask>
<path d="M14.8675 1.56582C14.8675 3.28718 14.2889 4.93803 13.259 6.15522C12.2291 7.3724 10.8322 8.05621 9.37565 8.05621C7.91912 8.05621 6.52224 7.3724 5.49232 6.15522C4.46239 4.93804 3.88379 3.28718 3.88379 1.56582L9.37565 1.56582L14.8675 1.56582Z" stroke="#0D0D0D" stroke-width="2.88462" mask="url(#path-2-outside-2_260_11)"/>
<line x1="1.44238" y1="18.1521" x2="17.3078" y2="18.1521" stroke="#0D0D0D" stroke-width="1.44231"/>
<line x1="1.44238" y1="0.84452" x2="17.3078" y2="0.84452" stroke="#0D0D0D" stroke-width="1.44231"/>
</svg>
