<svg width="81" height="30" viewBox="0 0 81 30" fill="none" xmlns="http://www.w3.org/2000/svg">
<g clip-path="url(#clip0_263_239)">
<path fill-rule="evenodd" clip-rule="evenodd" d="M36.7629 20.4902H33.4296L31.7629 14.902L31.6649 14.7059V14.5098L31.5668 14.3138V14.1176L31.4688 13.9216V13.6275L31.3708 13.4314V13.2353L31.1747 12.2549V11.8628L31.0766 11.3726V11.5686L30.9786 11.7647V12.0589L30.8806 12.1569V12.353L30.7825 12.6471V13.0392L30.5865 13.8235L30.3904 14.4118V14.6079L30.2923 14.8039V14.902L28.6257 20.4902H25.1943L21.959 9.41181H25.1943L26.5668 14.902L26.6649 15.098V15.4902L26.7629 15.6863V16.0784L26.8609 16.4706L26.959 16.9608V17.451L27.057 17.9412V18.3334V18.2353L27.1551 18.1373V17.6471L27.2531 17.451V17.1569L27.3511 16.8628V16.6667L27.4492 16.3726V16.0784L27.7433 15.1961V14.902L29.3119 9.41181H32.9394L34.6061 14.902V15.098L34.7041 15.2941V15.4902L34.8021 15.6863V16.1765L34.9002 16.5686L35.0963 17.549V17.8431L35.1943 18.0393V18.5294V18.1373L35.2923 18.0393V17.549L35.3904 17.451V17.0589L35.5865 16.2745V15.8824L35.6845 15.5883V15.2941L35.7825 15.098V14.902L37.057 9.41181H39.9002L36.7629 20.4902Z" fill="#151515"/>
<path fill-rule="evenodd" clip-rule="evenodd" d="M48.8216 9.41181V11.5686H44.0177V13.7255H48.5275V15.8824H44.0177V18.3334H49.0177V20.4902H40.9785V9.41181H48.8216Z" fill="#151515"/>
<path fill-rule="evenodd" clip-rule="evenodd" d="M58.4301 9.41181V11.5686H53.6261V13.7255H58.136V15.8824H53.6261V18.3334H58.6261V20.4902H50.5869V9.41181H58.4301Z" fill="#151515"/>
<path fill-rule="evenodd" clip-rule="evenodd" d="M63.4306 20.4902H60.1953V9.41181H63.4306V20.4902ZM66.862 14.1176L71.2737 20.4902H67.3522L63.5286 14.3138L67.0581 9.41181H70.6855L66.862 14.1176Z" fill="#151515"/>
<mask id="mask0_263_239" style="mask-type:luminance" maskUnits="userSpaceOnUse" x="72" y="9" width="9" height="12">
<path d="M72.3496 20.5879H80.2908V9.41143H72.3496V20.5879Z" fill="white"/>
</mask>
<g mask="url(#mask0_263_239)">
<path fill-rule="evenodd" clip-rule="evenodd" d="M80.1928 9.41181V11.5687H75.2908V13.7256H79.8006V15.8824H75.2908V18.3334H80.2908V20.4902H72.3496V9.41181H80.1928Z" fill="#151515"/>
</g>
<mask id="mask1_263_239" style="mask-type:luminance" maskUnits="userSpaceOnUse" x="-1" y="0" width="44" height="30">
<path d="M-0.00195312 30H42.0569V-2.47955e-05H-0.00195312V30Z" fill="white"/>
</mask>
<g mask="url(#mask1_263_239)">
<path fill-rule="evenodd" clip-rule="evenodd" d="M27.449 27.3529H25.8804L24.3118 27.1569L23.6255 26.9608L22.8412 26.8627L22.1549 26.6667L21.3706 26.3725L20.6843 26.1765L19.3118 25.5882L18.6255 25.1961L17.9392 24.902L16.7628 24.1176L16.1745 23.6275L15.5863 23.2353L15.0961 22.7451L14.6059 22.353L14.1157 21.8627L13.6255 21.2745L12.8412 20.2941L11.6647 17.9412L11.4686 17.353L11.1745 15.5882V13.6275L11.3706 13.0392L11.4686 12.451L11.8608 11.2745L12.449 10.0981L12.7431 9.60783L13.1353 9.01962L13.9196 8.03921L14.9 7.05881L15.3902 6.66667L15.8804 6.17645L17.0569 5.39216L17.6451 5.09806L18.3314 4.70587L21.0765 3.52939L22.6451 3.13725L23.3314 3.03922L24.1157 2.84315L24.9981 2.74511L25.7824 2.64708H29.2137L30.0961 2.74511L31.6647 2.94118L32.351 3.13725L33.1353 3.33332L33.8216 3.43136L34.5079 3.62743L35.0961 3.92159L36.2726 4.31372L36.8608 4.60783L37.351 4.90194L37.8412 5.09806L38.3314 5.39216L38.7236 5.58823L39.2137 5.88234L39.5079 6.17645L39.9 6.37256L40.1941 6.66667L40.7824 7.05881L41.3706 7.64707L41.5667 7.74511L41.6647 7.94118L41.8608 8.03921V8.13725V-2.47955e-05H8.91963V12.6471H7.44905V-2.47955e-05H-0.00195312V30H7.44905V16.3726H8.91963V30H41.8608L41.9588 21.6667H41.8608L41.1745 22.353L40.2922 22.9412L39.9981 23.2353L39.7039 23.4314L38.9196 24.0196L38.4294 24.2157L38.0373 24.5098L37.0569 25.098L36.4686 25.2941L35.8804 25.5882L35.2922 25.7843L34.7039 26.0784L34.1157 26.2745L31.3706 27.0588L30.5863 27.1569L29.9 27.2549L29.1157 27.3529H27.449Z" fill="#151515"/>
</g>
</g>
<defs>
<clipPath id="clip0_263_239">
<rect width="80.2941" height="30" fill="white"/>
</clipPath>
</defs>
</svg>
